<?xml version="1.0" encoding="utf-8"?>
<!-- Generator: Adobe Illustrator 16.0.0, SVG Export Plug-In . SVG Version: 6.00 Build 0)  -->
<!DOCTYPE svg PUBLIC "-//W3C//DTD SVG 1.1//EN" "http://www.w3.org/Graphics/SVG/1.1/DTD/svg11.dtd">
<svg version="1.1" id="Layer_1" xmlns="http://www.w3.org/2000/svg" xmlns:xlink="http://www.w3.org/1999/xlink" x="0px" y="0px"
	 width="100.306px" height="85px" viewBox="0 0 465.306 267.347" enable-background="new 0 0 465.306 267.347"
	 xml:space="preserve">
<rect x="27.209" y="26.477" fill="#F18F24" width="204.566" height="204.565"/>
<rect x="231.775" y="26.465" fill="#FFFFFF" width="204.575" height="204.587"/>
<g>
	<path fill="#FFFFFF" d="M133.008,90.585c0,1.012-0.331,1.9-0.951,2.65c-0.639,0.756-1.494,1.141-2.577,1.141
		c-1.007,0-1.815-0.385-2.456-1.141c-0.637-0.75-0.949-1.638-0.949-2.65c0-0.967,0.312-1.837,0.949-2.632
		c0.641-0.786,1.449-1.171,2.456-1.171c1.083,0,1.938,0.385,2.577,1.171C132.677,88.748,133.008,89.618,133.008,90.585z
		 M127.489,154.46h3.989v-50.006h-3.989V154.46z"/>
	<path fill="#FFFFFF" d="M160.651,115.468c-3.028-3.161-5.701-6.839-7.979-11.014h-4.562c2.407,4.752,5.275,8.893,8.603,12.454
		c3.329,3.548,6.993,7.066,10.97,10.544c-2.406,2.226-4.576,4.317-6.494,6.272c-1.945,1.967-3.711,4.002-5.33,6.101
		c-1.623,2.092-3.14,4.311-4.568,6.682c-1.425,2.389-2.809,5.029-4.132,7.954h4.47c1.26-2.61,2.566-4.989,3.9-7.135
		c1.322-2.157,2.741-4.186,4.23-6.09c1.48-1.896,3.126-3.762,4.898-5.618c1.762-1.824,3.703-3.697,5.797-5.6v-5.033
		C166.965,121.817,163.705,118.647,160.651,115.468z"/>
	<path fill="#FFFFFF" d="M98.317,115.468c3.041-3.161,5.72-6.839,7.989-11.014h4.564c-2.412,4.752-5.275,8.893-8.615,12.454
		c-3.309,3.548-6.977,7.066-10.969,10.544c2.416,2.226,4.575,4.317,6.507,6.272c1.938,1.967,3.704,4.002,5.315,6.101
		c1.625,2.092,3.142,4.311,4.562,6.682c1.441,2.389,2.811,5.029,4.141,7.954h-4.457c-1.269-2.61-2.58-4.989-3.906-7.135
		c-1.326-2.157-2.735-4.186-4.225-6.09c-1.496-1.896-3.126-3.762-4.896-5.618c-1.766-1.824-3.707-3.697-5.804-5.6v-5.033
		C92.007,121.817,95.279,118.647,98.317,115.468z"/>
</g>
<g>
	<path fill="#5B5C5F" d="M279.032,112.7c3.947,0,7.002,1.027,9.193,3.063c2.18,2.067,3.277,5.073,3.277,9.047v19.958h-1.732
		l-0.646-5.062h-0.25c-1.311,1.866-3.004,3.262-5.104,4.179c-2.078,0.908-4.25,1.362-6.529,1.362c-1.578,0-3.109-0.215-4.576-0.656
		c-1.479-0.442-2.768-1.1-3.904-1.96c-1.127-0.886-2.039-1.991-2.719-3.303c-0.668-1.317-1.004-2.861-1.004-4.601
		c0-1.879,0.367-3.455,1.094-4.752c0.742-1.293,1.717-2.339,2.934-3.14c1.207-0.794,2.592-1.38,4.141-1.728
		c1.535-0.367,3.133-0.535,4.758-0.535c1.873,0,3.729,0.154,5.58,0.454c1.846,0.296,3.674,0.7,5.453,1.179v-1.531
		c0-3.195-0.85-5.604-2.568-7.236c-1.701-1.604-4.145-2.414-7.326-2.414c-2.148,0-4.176,0.505-6.082,1.507
		c-1.91,1.002-3.248,2.524-4.047,4.579h-2.795c1.021-2.738,2.699-4.834,5.035-6.259C273.528,113.424,276.155,112.7,279.032,112.7z
		 M277.432,142.921c1.516,0,2.959-0.227,4.359-0.681c1.385-0.447,2.613-1.141,3.686-2.039c1.082-0.873,1.93-1.96,2.561-3.205
		c0.637-1.254,0.959-2.694,0.959-4.326v-4.05c-1.779-0.533-3.586-0.942-5.391-1.258c-1.807-0.318-3.631-0.469-5.457-0.469
		c-1.307,0-2.6,0.113-3.867,0.355c-1.275,0.236-2.432,0.659-3.428,1.251c-1.012,0.59-1.828,1.398-2.436,2.417
		c-0.621,1.009-0.943,2.295-0.943,3.836c0,1.436,0.27,2.666,0.834,3.699c0.557,1.021,1.307,1.885,2.242,2.54
		c0.93,0.649,1.994,1.135,3.184,1.462C274.926,142.773,276.17,142.921,277.432,142.921z"/>
	<path fill="#5B5C5F" d="M312.844,112.7c1.4,0,2.801,0.208,4.23,0.655v2.56c-0.746-0.195-1.486-0.348-2.23-0.492
		c-0.738-0.145-1.504-0.214-2.295-0.214c-1.273,0-2.486,0.358-3.648,1.068c-0.941,0.602-1.73,1.339-2.369,2.209
		c-0.637,0.863-1.135,1.828-1.529,2.849c-0.379,1.043-0.627,2.118-0.797,3.239c-0.154,1.109-0.258,2.178-0.258,3.205v16.869h-2.484
		v-31.525h1.723l0.666,5.482h0.225c0.926-1.783,2.104-3.214,3.561-4.301C309.075,113.242,310.825,112.7,312.844,112.7z"/>
	<path fill="#F18F24" d="M364.536,104.591c0,0.646-0.184,1.213-0.588,1.667c-0.393,0.485-0.932,0.731-1.6,0.731
		c-0.646,0-1.162-0.246-1.566-0.731c-0.393-0.454-0.588-1.021-0.588-1.667c0-0.57,0.195-1.144,0.588-1.623
		c0.404-0.504,0.92-0.75,1.566-0.75c0.668,0,1.207,0.246,1.6,0.75C364.352,103.448,364.536,104.021,364.536,104.591z
		 M361.09,144.648h2.498v-31.353h-2.498V144.648z"/>
	<path fill="#5B5C5F" d="M400.448,139.682c-0.852-1.504-1.809-2.899-2.822-4.207c-1.014-1.314-2.119-2.594-3.334-3.816
		c-1.219-1.218-2.576-2.544-4.09-3.939c2.51-2.175,4.789-4.387,6.891-6.608c2.086-2.225,3.879-4.834,5.396-7.815h-2.865
		c-1.432,2.619-3.094,4.938-5.004,6.955c-1.908,1.995-3.953,3.978-6.145,5.925v3.157c1.314,1.198,2.518,2.363,3.656,3.517
		c1.1,1.154,2.119,2.32,3.053,3.51c0.928,1.192,1.807,2.472,2.629,3.817c0.811,1.353,1.619,2.846,2.406,4.472h2.85
		C402.209,142.827,401.329,141.163,400.448,139.682z"/>
	<path fill="#F18F24" d="M382.34,120.207c-1.906-1.974-3.57-4.292-5.004-6.911h-2.865c1.502,2.981,3.312,5.591,5.389,7.815
		c2.094,2.222,4.391,4.434,6.889,6.608c-1.502,1.396-2.879,2.722-4.084,3.939c-1.213,1.223-2.328,2.502-3.334,3.816
		c-1.021,1.308-1.967,2.703-2.857,4.207c-0.891,1.48-1.762,3.145-2.594,4.966h2.807c0.787-1.626,1.605-3.119,2.438-4.472
		c0.834-1.346,1.717-2.625,2.656-3.817c0.928-1.189,1.955-2.355,3.062-3.51c1.111-1.153,2.322-2.318,3.633-3.517v-3.157
		C386.299,124.192,384.25,122.21,382.34,120.207z"/>
	<path fill="#F18F24" d="M337.792,125.815c2.223-1.864,4.348-3.838,6.375-5.905c2.029-2.061,3.912-4.261,5.654-6.614h-2.959
		c-2.764,3.426-5.852,6.646-9.312,9.665c-0.551,0.473-1.107,0.938-1.656,1.412v3.019c2.252,2.653,4.326,5.401,6.184,8.282
		c1.871,2.89,3.623,5.887,5.262,8.975h2.965c-1.754-3.365-3.668-6.617-5.777-9.731C342.422,131.785,340.168,128.765,337.792,125.815
		z"/>
	<path fill="#5B5C5F" d="M335.893,124.373c-2.934,2.461-5.943,4.694-9.004,6.699h-0.301V112.7h-2.451v31.948h2.451v-10.657
		c3.209-2.03,6.314-4.239,9.295-6.628c0,0.016,0.01,0.016,0.01,0.016V124.373z"/>
</g>
</svg>
